<svg width="80" height="80" viewBox="0 0 80 80" fill="none" xmlns="http://www.w3.org/2000/svg">
<g clip-path="url(#clip0_237_2)">
<path d="M52.0185 6.05854C51.8884 6.08204 51.7599 6.1139 51.6339 6.15393H3.07695C2.9806 6.14939 2.88408 6.14939 2.78772 6.15393C2.02279 6.22614 1.31255 6.58193 0.79668 7.15133C0.280807 7.72073 -0.00337114 8.46253 3.01832e-05 9.23085V58.3662C3.01832e-05 65.6432 4.05849 70.1139 7.88618 72.0185C11.7108 73.9232 15.3846 73.8462 15.3846 73.8462H64.9046C64.9364 73.8467 64.9682 73.8467 65 73.8462C65.5385 73.8462 68.6185 73.7662 72.1169 72.0185C75.7662 70.1939 79.5846 65.9909 79.9016 59.3262C79.9035 59.2627 79.9035 59.199 79.9016 59.1355C79.9077 59.0678 79.9969 59.0124 80 58.9416C80.0125 58.7819 80.0125 58.6214 80 58.4616C80.0046 58.3653 80.0046 58.2687 80 58.1724V24.7109C80.0005 24.6791 80.0005 24.6473 80 24.6155C80 24.6155 79.9877 22.4555 78.8462 20.1909C77.8093 18.1385 75.3169 15.8832 71.8277 15.4832C71.4892 15.3558 71.1309 15.2892 70.7693 15.2862H55.3846V9.80624C55.4026 9.61486 55.4026 9.42223 55.3846 9.23085C55.3927 9.10277 55.3927 8.97432 55.3846 8.84624C55.3867 8.78164 55.3867 8.71699 55.3846 8.65239C55.3851 8.62162 55.3851 8.59085 55.3846 8.56008C55.3551 8.49437 55.3233 8.42972 55.2893 8.36624C55.2897 8.33444 55.2897 8.30264 55.2893 8.27085C55.2612 8.17287 55.2284 8.07634 55.1908 7.98162C55.1327 7.8817 55.069 7.78514 55 7.69239C54.9184 7.52393 54.8216 7.36326 54.7108 7.21239C54.6191 7.14246 54.5236 7.07775 54.4246 7.01854C54.308 6.87924 54.1793 6.75053 54.04 6.63393C54.0072 6.6334 53.9744 6.6334 53.9416 6.63393C53.6234 6.4085 53.2652 6.2456 52.8862 6.15393C52.603 6.08106 52.3108 6.04894 52.0185 6.05854ZM6.15388 12.3078H49.2308V17.6924C49.1455 18.1044 49.1455 18.5296 49.2308 18.9416V58.3693C49.2308 62.3078 50.48 65.3693 52.2123 67.6955H15.3846C15.3846 67.6955 13.9877 67.7016 12.3077 67.2155C11.7114 67.0429 11.1316 66.8174 10.5754 66.5416C8.24926 65.3816 6.15388 63.6308 6.15388 58.3662V12.3078ZM12.3077 18.4616C10.6123 18.4616 9.2308 19.8432 9.2308 21.5385V27.6924C9.2308 29.3878 10.6123 30.7693 12.3077 30.7693H43.0769C44.7723 30.7693 46.1539 29.3878 46.1539 27.6924V21.5385C46.1539 19.8432 44.7723 18.4616 43.0769 18.4616H12.3077ZM55.3846 21.4432H62.1169C61.5416 23.1293 61.5385 24.5201 61.5385 24.5201C61.538 24.5519 61.538 24.5837 61.5385 24.6155V55.3847C61.5385 56.2007 61.8627 56.9834 62.4397 57.5604C63.0167 58.1374 63.7994 58.4616 64.6154 58.4616C65.4315 58.4616 66.2141 58.1374 66.7911 57.5604C67.3682 56.9834 67.6923 56.2007 67.6923 55.3847V24.6155C67.6985 24.5293 67.7693 23.7693 68.1723 22.9816C68.6 22.1509 68.8154 21.5385 70.7693 21.5385C72.7077 21.5385 72.9323 22.1232 73.3662 22.9816C73.7754 23.797 73.84 24.6247 73.8462 24.7109V58.4616C73.8416 58.558 73.8416 58.6545 73.8462 58.7509C73.7631 63.637 71.7169 65.2955 69.4216 66.4432C67.0831 67.6124 64.6154 67.6924 64.6154 67.6924C64.6154 67.6924 62.1539 67.6278 59.8062 66.4432C57.4616 65.2585 55.3846 63.517 55.3846 58.3662V21.4432ZM11.4431 36.9232C10.6271 37.0378 9.88998 37.4719 9.39401 38.1301C8.89805 38.7882 8.68384 39.6163 8.79849 40.4324C8.91315 41.2484 9.34728 41.9855 10.0054 42.4815C10.6635 42.9774 11.4917 43.1917 12.3077 43.077H21.5385C22.3545 43.077 23.1372 42.7528 23.7142 42.1758C24.2912 41.5988 24.6154 40.8161 24.6154 40.0001C24.6154 39.184 24.2912 38.4014 23.7142 37.8244C23.1372 37.2473 22.3545 36.9232 21.5385 36.9232H12.3077C12.2114 36.9186 12.1148 36.9186 12.0185 36.9232C11.9221 36.9186 11.8256 36.9186 11.7293 36.9232C11.6339 36.9187 11.5384 36.9187 11.4431 36.9232ZM29.9046 36.9232C29.0886 37.0378 28.3515 37.4719 27.8555 38.1301C27.3596 38.7882 27.1454 39.6163 27.26 40.4324C27.3747 41.2484 27.8088 41.9855 28.4669 42.4815C29.125 42.9774 29.9532 43.1917 30.7693 43.077H43.0769C43.893 43.077 44.6756 42.7528 45.2527 42.1758C45.8297 41.5988 46.1539 40.8161 46.1539 40.0001C46.1539 39.184 45.8297 38.4014 45.2527 37.8244C44.6756 37.2473 43.893 36.9232 43.0769 36.9232H30.7693C30.6729 36.9186 30.5764 36.9186 30.48 36.9232C30.3837 36.9186 30.2872 36.9186 30.1908 36.9232C30.0955 36.9187 30 36.9187 29.9046 36.9232ZM11.4431 46.1539C10.6271 46.2686 9.88998 46.7027 9.39401 47.3608C8.89805 48.0189 8.68384 48.8471 8.79849 49.6632C8.91315 50.4792 9.34728 51.2163 10.0054 51.7122C10.6635 52.2082 11.4917 52.4224 12.3077 52.3078H21.5385C22.3545 52.3078 23.1372 51.9836 23.7142 51.4066C24.2912 50.8295 24.6154 50.0469 24.6154 49.2308C24.6154 48.4148 24.2912 47.6322 23.7142 47.0551C23.1372 46.4781 22.3545 46.1539 21.5385 46.1539H12.3077C12.2114 46.1494 12.1148 46.1494 12.0185 46.1539C11.9221 46.1494 11.8256 46.1494 11.7293 46.1539C11.6339 46.1495 11.5384 46.1495 11.4431 46.1539ZM29.9046 46.1539C29.0886 46.2686 28.3515 46.7027 27.8555 47.3608C27.3596 48.0189 27.1454 48.8471 27.26 49.6632C27.3747 50.4792 27.8088 51.2163 28.4669 51.7122C29.125 52.2082 29.9532 52.4224 30.7693 52.3078H43.0769C43.893 52.3078 44.6756 51.9836 45.2527 51.4066C45.8297 50.8295 46.1539 50.0469 46.1539 49.2308C46.1539 48.4148 45.8297 47.6322 45.2527 47.0551C44.6756 46.4781 43.893 46.1539 43.0769 46.1539H30.7693C30.6729 46.1494 30.5764 46.1494 30.48 46.1539C30.3837 46.1494 30.2872 46.1494 30.1908 46.1539C30.0955 46.1495 30 46.1495 29.9046 46.1539ZM12.9816 55.3847C12.1655 55.4994 11.4284 55.9335 10.9325 56.5916C10.4365 57.2497 10.2223 58.0779 10.337 58.8939C10.4516 59.71 10.8857 60.4471 11.5438 60.943C12.202 61.439 13.0301 61.6532 13.8462 61.5385H21.5385C22.3545 61.5385 23.1372 61.2144 23.7142 60.6373C24.2912 60.0603 24.6154 59.2777 24.6154 58.4616C24.6154 57.6456 24.2912 56.8629 23.7142 56.2859C23.1372 55.7089 22.3545 55.3847 21.5385 55.3847H13.8462C13.7498 55.3802 13.6533 55.3802 13.557 55.3847C13.4616 55.3803 13.3661 55.3803 13.2708 55.3847C13.1744 55.3802 13.0779 55.3802 12.9816 55.3847ZM29.9046 55.3847C29.0886 55.4994 28.3515 55.9335 27.8555 56.5916C27.3596 57.2497 27.1454 58.0779 27.26 58.8939C27.3747 59.71 27.8088 60.4471 28.4669 60.943C29.125 61.439 29.9532 61.6532 30.7693 61.5385H43.0769C43.893 61.5385 44.6756 61.2144 45.2527 60.6373C45.8297 60.0603 46.1539 59.2777 46.1539 58.4616C46.1539 57.6456 45.8297 56.8629 45.2527 56.2859C44.6756 55.7089 43.893 55.3847 43.0769 55.3847H30.7693C30.6729 55.3802 30.5764 55.3802 30.48 55.3847C30.3837 55.3802 30.2872 55.3802 30.1908 55.3847C30.0955 55.3803 30 55.3803 29.9046 55.3847Z" fill="white"/>
</g>
<defs>
<clipPath id="clip0_237_2">
<rect width="80" height="80" fill="white"/>
</clipPath>
</defs>
</svg>
