<svg width="80" height="80" viewBox="0 0 80 80" fill="none" xmlns="http://www.w3.org/2000/svg">
<g filter="url(#filter0_i_248_7)">
<path d="M40 46.6668V53.3335C34.6957 53.3335 29.6086 55.4406 25.8579 59.1914C22.1071 62.9421 20 68.0292 20 73.3335H13.3333C13.3333 66.2611 16.1429 59.4783 21.1438 54.4773C26.1448 49.4763 32.9276 46.6668 40 46.6668ZM40 43.3335C28.95 43.3335 20 34.3835 20 23.3335C20 12.2835 28.95 3.3335 40 3.3335C51.05 3.3335 60 12.2835 60 23.3335C60 34.3835 51.05 43.3335 40 43.3335ZM40 36.6668C47.3667 36.6668 53.3333 30.7002 53.3333 23.3335C53.3333 15.9668 47.3667 10.0002 40 10.0002C32.6333 10.0002 26.6667 15.9668 26.6667 23.3335C26.6667 30.7002 32.6333 36.6668 40 36.6668ZM70 56.6668H73.3333V73.3335H46.6667V56.6668H50V53.3335C50 50.6813 51.0536 48.1378 52.9289 46.2624C54.8043 44.3871 57.3478 43.3335 60 43.3335C62.6522 43.3335 65.1957 44.3871 67.0711 46.2624C68.9464 48.1378 70 50.6813 70 53.3335V56.6668ZM63.3333 56.6668V53.3335C63.3333 52.4494 62.9822 51.6016 62.357 50.9765C61.7319 50.3514 60.8841 50.0002 60 50.0002C59.116 50.0002 58.2681 50.3514 57.643 50.9765C57.0179 51.6016 56.6667 52.4494 56.6667 53.3335V56.6668H63.3333Z" fill="white"/>
</g>
<defs>
<filter id="filter0_i_248_7" x="0" y="0" width="80" height="84" filterUnits="userSpaceOnUse" color-interpolation-filters="sRGB">
<feFlood flood-opacity="0" result="BackgroundImageFix"/>
<feBlend mode="normal" in="SourceGraphic" in2="BackgroundImageFix" result="shape"/>
<feColorMatrix in="SourceAlpha" type="matrix" values="0 0 0 0 0 0 0 0 0 0 0 0 0 0 0 0 0 0 127 0" result="hardAlpha"/>
<feOffset dy="4"/>
<feGaussianBlur stdDeviation="2"/>
<feComposite in2="hardAlpha" operator="arithmetic" k2="-1" k3="1"/>
<feColorMatrix type="matrix" values="0 0 0 0 0 0 0 0 0 0 0 0 0 0 0 0 0 0 0.7 0"/>
<feBlend mode="normal" in2="shape" result="effect1_innerShadow_248_7"/>
</filter>
</defs>
</svg>
