<svg width="80" height="80" viewBox="0 0 80 80" fill="none" xmlns="http://www.w3.org/2000/svg">
<path d="M23.8333 70.3335C23 69.5002 22.5833 68.5135 22.5833 67.3735C22.5833 66.2357 23 65.2502 23.8333 64.4168L48.25 40.0002L23.75 15.5002C22.9722 14.7224 22.5833 13.7502 22.5833 12.5835C22.5833 11.4168 23 10.4168 23.8333 9.5835C24.6667 8.75016 25.6533 8.3335 26.7933 8.3335C27.9311 8.3335 28.9167 8.75016 29.75 9.5835L57.75 37.6668C58.0833 38.0002 58.32 38.3613 58.46 38.7502C58.5978 39.1391 58.6667 39.5557 58.6667 40.0002C58.6667 40.4446 58.5978 40.8613 58.46 41.2502C58.32 41.6391 58.0833 42.0002 57.75 42.3335L29.6667 70.4168C28.8889 71.1946 27.9311 71.5835 26.7933 71.5835C25.6533 71.5835 24.6667 71.1668 23.8333 70.3335Z" fill="white"/>
</svg>
