<svg width="70" height="48" viewBox="0 0 70 48" fill="none" xmlns="http://www.w3.org/2000/svg">
<path d="M1.82143 1.48818C1.82145 1.48815 1.82148 1.48813 1.8215 1.48811C2.13411 1.17559 2.55806 1 3.00001 1H67C67.442 1 67.8659 1.17561 68.1786 1.48818C68.4911 1.80076 68.6667 2.22468 68.6667 2.6667C68.6667 3.10863 68.4911 3.53259 68.1785 3.84519C67.8659 4.15774 67.4421 4.3333 67 4.3333H3.00001C2.55794 4.3333 2.13403 4.15772 1.8215 3.84519C1.50894 3.53263 1.33334 3.10868 1.33334 2.6667C1.33334 2.22463 1.50892 1.80072 1.82143 1.48818ZM1.33334 24C1.33334 23.558 1.50894 23.1341 1.8215 22.8215C2.1341 22.5089 2.55803 22.3333 3.00001 22.3333H67C67.442 22.3333 67.8659 22.5089 68.1785 22.8215C68.4911 23.1341 68.6667 23.5581 68.6667 24C68.6667 24.4419 68.4911 24.8659 68.1785 25.1785C67.8659 25.4911 67.442 25.6667 67 25.6667H3.00001C2.55803 25.6667 2.1341 25.4911 1.8215 25.1785C1.50894 24.8659 1.33334 24.442 1.33334 24ZM1.33334 45.3333C1.33334 44.8913 1.50894 44.4674 1.8215 44.1548C2.13403 43.8423 2.55794 43.6667 3.00001 43.6667H67C67.4421 43.6667 67.8659 43.8423 68.1785 44.1548C68.4911 44.4674 68.6667 44.8914 68.6667 45.3333C68.6667 45.7754 68.4911 46.1993 68.1785 46.5119C67.866 46.8244 67.4421 47 67 47H3.00001C2.55794 47 2.13403 46.8244 1.8215 46.5119C1.50895 46.1993 1.33334 45.7754 1.33334 45.3333Z" fill="white" stroke="black" stroke-width="2"/>
</svg>
