<svg width="80" height="80" viewBox="0 0 80 80" fill="none" xmlns="http://www.w3.org/2000/svg">
<path fill-rule="evenodd" clip-rule="evenodd" d="M8.00001 16C7.29277 16 6.61449 16.281 6.11439 16.781C5.61429 17.2811 5.33334 17.9594 5.33334 18.6667C5.33334 19.3739 5.61429 20.0522 6.11439 20.5523C6.61449 21.0524 7.29277 21.3333 8.00001 21.3333H72C72.7073 21.3333 73.3855 21.0524 73.8856 20.5523C74.3857 20.0522 74.6667 19.3739 74.6667 18.6667C74.6667 17.9594 74.3857 17.2811 73.8856 16.781C73.3855 16.281 72.7073 16 72 16H8.00001ZM5.33334 40C5.33334 39.2928 5.61429 38.6145 6.11439 38.1144C6.61449 37.6143 7.29277 37.3333 8.00001 37.3333H72C72.7073 37.3333 73.3855 37.6143 73.8856 38.1144C74.3857 38.6145 74.6667 39.2928 74.6667 40C74.6667 40.7072 74.3857 41.3855 73.8856 41.8856C73.3855 42.3857 72.7073 42.6667 72 42.6667H8.00001C7.29277 42.6667 6.61449 42.3857 6.11439 41.8856C5.61429 41.3855 5.33334 40.7072 5.33334 40ZM5.33334 61.3333C5.33334 60.6261 5.61429 59.9478 6.11439 59.4477C6.61449 58.9476 7.29277 58.6667 8.00001 58.6667H72C72.7073 58.6667 73.3855 58.9476 73.8856 59.4477C74.3857 59.9478 74.6667 60.6261 74.6667 61.3333C74.6667 62.0406 74.3857 62.7189 73.8856 63.219C73.3855 63.7191 72.7073 64 72 64H8.00001C7.29277 64 6.61449 63.7191 6.11439 63.219C5.61429 62.7189 5.33334 62.0406 5.33334 61.3333Z" fill="#FCD66E"/>
</svg>
