<svg width="60" height="86" viewBox="0 0 60 86" fill="none" xmlns="http://www.w3.org/2000/svg">
<path d="M14.7556 2.48889C14.7556 1.11431 15.8699 0 17.2445 0H57.5111C58.8857 0 60 1.11431 60 2.48889V2.48889H14.7556V2.48889Z" fill="#E35858"/>
<path d="M14.7556 67.8223H60V67.8223C60 69.1968 58.8857 70.3112 57.5111 70.3112H17.2445C15.8699 70.3112 14.7556 69.1968 14.7556 67.8223V67.8223Z" fill="#E35858"/>
<path d="M0 32.8892H26.5333V34.978H0V32.8892Z" fill="#E35858"/>
<path d="M0 32.8843L12.9652 27.1113L13.9776 29.3849L1.0124 35.158L0 32.8843Z" fill="#E35858"/>
<path d="M0.94751 32.6665L14.0713 38.0693L13.1238 40.3708L3.91189e-05 34.968L0.94751 32.6665Z" fill="#E35858"/>
<rect x="57.689" y="2.48877" width="2.31111" height="65.3333" fill="#E35858"/>
<rect x="14.7556" y="2.48877" width="2.31111" height="20.0889" fill="#E35858"/>
<rect x="14.7556" y="47.7334" width="2.31111" height="20.0889" fill="#E35858"/>
<path d="M31.3779 17.4888L57.689 2.48877V68.5L31.3779 85.3109V17.4888Z" fill="#E35858"/>
<line x1="58.189" y1="9.37744" x2="58.189" y2="31.1552" stroke="white"/>
<line x1="58.189" y1="2.48877" x2="58.189" y2="5.37766" stroke="white"/>
<path d="M58 66V69" stroke="white"/>
<line x1="31.8779" y1="17.3779" x2="31.8779" y2="85.3334" stroke="white"/>
<line x1="58.189" y1="34.978" x2="58.189" y2="60.9336" stroke="white"/>
<line x1="57.9352" y1="2.92393" x2="31.6241" y2="17.8128" stroke="white"/>
<path d="M58 68.5L31.3514 85.2159" stroke="white"/>
</svg>
