<svg width="40" height="40" viewBox="0 0 40 40" fill="none" xmlns="http://www.w3.org/2000/svg">
<g filter="url(#filter0_i_109_131)">
<path d="M34.2969 21.5938C36.4041 19.4866 37.5879 16.6285 37.5879 13.6485C37.5879 10.6684 36.4041 7.81039 34.2969 5.70317C32.1896 3.59594 29.3316 2.41211 26.3516 2.41211C23.3715 2.41211 20.5135 3.59594 18.4063 5.70317L18.2969 5.79692L18.2031 5.90629C16.1484 7.99983 14.9981 10.8166 15 13.75C14.997 14.152 15.0179 14.5537 15.0625 14.9532L3.37501 30.8907C3.02105 31.3727 2.85164 31.9657 2.8975 32.562C2.94337 33.1583 3.20149 33.7184 3.62501 34.1407L5.85938 36.375C6.28164 36.7986 6.84174 37.0567 7.43803 37.1025C8.03433 37.1484 8.62731 36.979 9.10938 36.625L25.0469 24.9375C25.4463 24.9821 25.8481 25.003 26.25 25C29.1834 25.002 32.0002 23.8517 34.0938 21.7969L34.2031 21.7032L34.2969 21.5938ZM35 13.75C35.0023 15.6389 34.3878 17.4768 33.25 18.9844L21.0156 6.75004C22.3141 5.77345 23.8592 5.17839 25.4773 5.03175C27.0955 4.88512 28.7224 5.19271 30.1753 5.91997C31.6282 6.64722 32.8494 7.7653 33.7017 9.14853C34.554 10.5318 35.0036 12.1253 35 13.75ZM7.625 34.6094L5.39063 32.375L15.875 18.0938C17.0187 20.816 19.184 22.9814 21.9063 24.125L7.625 34.6094ZM17.5 13.75C17.4977 11.8612 18.1122 10.0233 19.25 8.51567L31.4844 20.75C30.1859 21.7266 28.6408 22.3217 27.0227 22.4683C25.4046 22.615 23.7776 22.3074 22.3247 21.5801C20.8719 20.8529 19.6506 19.7348 18.7983 18.3515C17.946 16.9683 17.4964 15.3748 17.5 13.75ZM16.5156 23.4844C16.7504 23.7214 16.882 24.0415 16.882 24.375C16.882 24.7086 16.7504 25.0287 16.5156 25.2657L14.6406 27.1407C14.4017 27.3717 14.0824 27.5008 13.75 27.5008C13.4177 27.5008 13.0983 27.3717 12.8594 27.1407C12.6247 26.9037 12.493 26.5836 12.493 26.25C12.493 25.9165 12.6247 25.5964 12.8594 25.3594L14.7344 23.4844C14.9714 23.2497 15.2914 23.118 15.625 23.118C15.9586 23.118 16.2786 23.2497 16.5156 23.4844Z" fill="white"/>
</g>
<defs>
<filter id="filter0_i_109_131" x="0" y="0" width="40" height="41" filterUnits="userSpaceOnUse" color-interpolation-filters="sRGB">
<feFlood flood-opacity="0" result="BackgroundImageFix"/>
<feBlend mode="normal" in="SourceGraphic" in2="BackgroundImageFix" result="shape"/>
<feColorMatrix in="SourceAlpha" type="matrix" values="0 0 0 0 0 0 0 0 0 0 0 0 0 0 0 0 0 0 127 0" result="hardAlpha"/>
<feOffset dy="1"/>
<feGaussianBlur stdDeviation="1"/>
<feComposite in2="hardAlpha" operator="arithmetic" k2="-1" k3="1"/>
<feColorMatrix type="matrix" values="0 0 0 0 0 0 0 0 0 0 0 0 0 0 0 0 0 0 0.9 0"/>
<feBlend mode="normal" in2="shape" result="effect1_innerShadow_109_131"/>
</filter>
</defs>
</svg>
