<svg width="40" height="40" viewBox="0 0 40 40" fill="none" xmlns="http://www.w3.org/2000/svg">
<g filter="url(#filter0_i_109_151)">
<path d="M13.5166 32.4167C11.6738 31.738 10.0339 30.6017 8.75106 29.1148C7.46822 27.6279 6.5846 25.8391 6.1833 23.9167L3.41663 10.9001C3.01663 9.10005 4.16663 7.33338 5.96663 6.95005L22.25 3.50005L22.3 3.48338C24.0833 3.13338 25.8333 4.28339 26.2 6.05005L26.7833 8.83338L34.0333 10.3834H34.0833C35.8333 10.7834 36.9666 12.5501 36.6 14.3167L33.8333 27.3501C33.514 28.8472 32.9028 30.2668 32.0347 31.5278C31.1667 32.7887 30.0587 33.8663 28.7741 34.699C27.4895 35.5317 26.0534 36.1031 24.548 36.3807C23.0425 36.6582 21.497 36.6365 20 36.3167C17.4602 35.7867 15.175 34.412 13.5166 32.4167ZM33.3333 13.6334L17.05 10.1667L14.2833 23.2001V23.2501C13.3333 27.7167 16.2166 32.1167 20.7 33.0667C25.1833 34.0167 29.6166 31.1501 30.5666 26.6667L33.3333 13.6334ZM26.6666 27.5001C26.1401 28.3914 25.3467 29.0947 24.3986 29.5104C23.4505 29.9262 22.3956 30.0333 21.3833 29.8167C20.3741 29.6007 19.4575 29.0752 18.7614 28.3133C18.0652 27.5514 17.6242 26.5912 17.5 25.5667L26.6666 27.5001ZM14.1166 8.61672L6.66663 10.2167L9.4333 23.2334L9.44996 23.2834C9.69996 24.4667 10.2 25.5334 10.8833 26.4501C10.7166 25.1667 10.75 23.8334 11.0333 22.5001L11.75 19.1667C11 19.0334 10.35 18.6167 9.99996 18.0167C10.1 17.0001 10.9333 16.1001 12.0833 15.8334H12.5L13.8 9.48338C13.8666 9.16672 13.9666 8.88338 14.1166 8.61672ZM25.05 20.3834C25.5833 19.5001 26.7166 19.0334 27.8666 19.2834C29.0166 19.5167 29.85 20.4001 30 21.4334C29.45 22.3001 28.3333 22.7667 27.1666 22.5001C26.0166 22.2834 25.1833 21.4001 25.05 20.3834ZM16.9166 18.6501C17.45 17.7667 18.5666 17.3001 19.7166 17.5501C20.8333 17.7834 21.7166 18.6834 21.85 19.7001C21.3 20.5667 20.1833 21.0501 19.0333 20.8334C17.8833 20.5501 17.05 19.6667 16.9166 18.6501ZM19.95 7.38338L23.2166 8.08338L22.95 6.75005L19.95 7.38338Z" fill="white"/>
</g>
<defs>
<filter id="filter0_i_109_151" x="0" y="0" width="40" height="41" filterUnits="userSpaceOnUse" color-interpolation-filters="sRGB">
<feFlood flood-opacity="0" result="BackgroundImageFix"/>
<feBlend mode="normal" in="SourceGraphic" in2="BackgroundImageFix" result="shape"/>
<feColorMatrix in="SourceAlpha" type="matrix" values="0 0 0 0 0 0 0 0 0 0 0 0 0 0 0 0 0 0 127 0" result="hardAlpha"/>
<feOffset dy="1"/>
<feGaussianBlur stdDeviation="0.5"/>
<feComposite in2="hardAlpha" operator="arithmetic" k2="-1" k3="1"/>
<feColorMatrix type="matrix" values="0 0 0 0 0 0 0 0 0 0 0 0 0 0 0 0 0 0 0.9 0"/>
<feBlend mode="normal" in2="shape" result="effect1_innerShadow_109_151"/>
</filter>
</defs>
</svg>
