<svg width="40" height="40" viewBox="0 0 40 40" fill="none" xmlns="http://www.w3.org/2000/svg">
<g clip-path="url(#clip0_109_158)" filter="url(#filter0_i_109_158)">
<path d="M38.1656 24.7343C37.8906 24.4406 37.7875 23.9281 37.7218 23.5406C37.5 22.2312 36.9437 21.0281 35.9625 20.1218C34.6531 18.9156 32.85 18.1093 30.925 17.7593C30.65 17.7093 30.3312 17.6875 30.0468 17.75C30.0406 17.75 30.0343 17.7468 30.0312 17.7468C29.8344 17.7491 29.6466 17.8293 29.5089 17.9699C29.3712 18.1105 29.2949 18.3001 29.2968 18.4968L29.4312 30.3968C28.6687 29.9312 27.7562 29.7406 26.8281 29.7843C25.225 29.8593 23.5875 30.6062 22.6281 31.7468C22.3062 32.1281 21.9968 32.6187 21.8375 33.0968C21.675 33.5906 21.5875 34.2906 21.7062 34.8062C21.9593 35.8781 22.6531 36.8218 23.6406 37.3187C23.9125 37.4562 24.2125 37.5812 24.5062 37.6562C26.1281 38.0781 27.8718 37.3468 29.0781 36.275C30.0062 35.4468 30.9 34.0875 30.9156 32.7937C30.9218 32.7562 30.9375 32.725 30.9343 32.6843L30.8312 23.3593C30.9562 23.3562 31.0718 23.3468 31.1625 23.3468C31.675 23.3437 32.1875 23.3843 32.6906 23.4812C33.6281 23.6656 34.5718 24.0312 35.25 24.725C35.925 25.4187 36.55 26.0968 37.5531 26.2781C37.9718 26.3531 38.6937 26.225 38.9625 25.8593C39.4 25.2593 38.4562 25.0406 38.1656 24.7343ZM18.15 27.9187C17.9031 27.6031 17.8406 27.0843 17.8031 26.6937C17.6875 25.3718 17.2312 24.125 16.3218 23.1437C15.1125 21.8375 13.3812 20.8875 11.4937 20.3843C11.2218 20.3125 10.9062 20.2656 10.6156 20.3062C10.6125 20.3062 10.6062 20.3031 10.6 20.3031C10.1906 20.275 9.83746 20.5812 9.80934 20.9906L8.99059 32.8625C8.26871 32.3406 7.37809 32.0781 6.44996 32.0437C4.84684 31.9875 3.15309 32.6031 2.10621 33.6625C1.75621 34.0187 1.40309 34.4812 1.21246 34.9437C1.01246 35.425 0.865586 36.1156 0.943711 36.6375C1.10934 37.725 1.72809 38.7218 2.67184 39.3C2.93121 39.4594 3.21871 39.6062 3.50621 39.7062C5.08746 40.2562 6.88434 39.6656 8.17184 38.6937C9.16559 37.9437 10.1625 36.6593 10.2781 35.3718C10.2875 35.3344 10.3062 35.3031 10.3062 35.2656L10.9468 25.9593C11.0718 25.9656 11.1875 25.9687 11.2781 25.9718C11.7875 26.0093 12.2968 26.0906 12.7906 26.2281C13.7093 26.4843 14.6218 26.9281 15.2406 27.6718C15.8593 28.4156 16.4218 29.1437 17.4093 29.4031C17.8218 29.5125 18.5562 29.4406 18.85 29.0968C19.3375 28.5406 18.4125 28.25 18.15 27.9187ZM16.5468 19.5593C16.8156 19.7 17.1156 19.8312 17.4062 19.9125C19.0156 20.3625 20.775 19.6625 22 18.6156C22.9437 17.8062 23.8625 16.4625 23.8968 15.1718C23.9031 15.1343 23.9187 15.1031 23.9187 15.0625L23.9875 5.73435C24.1156 5.73435 24.2281 5.72497 24.3187 5.7281C24.8312 5.73122 25.3437 5.78435 25.8437 5.8906C26.7781 6.0906 27.7187 6.47497 28.3812 7.18122C29.0437 7.88435 29.6531 8.5781 30.6531 8.77497C31.0687 8.85935 31.8 8.74372 32.0718 8.38122C32.5156 7.7906 31.5718 7.5531 31.2937 7.2406C31.0218 6.9406 30.9281 6.4281 30.8718 6.0406C30.675 4.72497 30.1406 3.51247 29.175 2.58747C27.8843 1.35935 26.0968 0.518723 24.1812 0.134348C23.9062 0.0780976 23.5875 0.0499726 23.3 0.106223C23.2968 0.106223 23.2906 0.103098 23.2843 0.103098C23.088 0.101847 22.8992 0.178419 22.7593 0.316054C22.6193 0.453689 22.5395 0.641175 22.5375 0.837473L22.4531 12.7375C21.7 12.2593 20.7937 12.0531 19.8656 12.0781C18.2593 12.1218 16.6093 12.8406 15.6312 13.9625C15.3 14.3406 14.9843 14.825 14.8156 15.2968C14.6437 15.7906 14.5437 16.4875 14.6531 17.0031C14.8906 18.0843 15.5687 19.0406 16.5468 19.5593Z" fill="white"/>
</g>
<defs>
<filter id="filter0_i_109_158" x="0" y="0" width="40" height="41" filterUnits="userSpaceOnUse" color-interpolation-filters="sRGB">
<feFlood flood-opacity="0" result="BackgroundImageFix"/>
<feBlend mode="normal" in="SourceGraphic" in2="BackgroundImageFix" result="shape"/>
<feColorMatrix in="SourceAlpha" type="matrix" values="0 0 0 0 0 0 0 0 0 0 0 0 0 0 0 0 0 0 127 0" result="hardAlpha"/>
<feOffset dy="2"/>
<feGaussianBlur stdDeviation="0.5"/>
<feComposite in2="hardAlpha" operator="arithmetic" k2="-1" k3="1"/>
<feColorMatrix type="matrix" values="0 0 0 0 0 0 0 0 0 0 0 0 0 0 0 0 0 0 0.9 0"/>
<feBlend mode="normal" in2="shape" result="effect1_innerShadow_109_158"/>
</filter>
<clipPath id="clip0_109_158">
<rect width="40" height="40" fill="white"/>
</clipPath>
</defs>
</svg>
