<svg width="40" height="40" viewBox="0 0 40 40" fill="none" xmlns="http://www.w3.org/2000/svg">
<g filter="url(#filter0_i_208_9)">
<path d="M24.2499 27.5834L18.3333 21.6667V13.3334H21.6666V20.2917L26.5833 25.2084L24.2499 27.5834ZM18.3333 10V6.66671H21.6666V10H18.3333ZM29.9999 21.6667V18.3334H33.3333V21.6667H29.9999ZM18.3333 33.3334V30H21.6666V33.3334H18.3333ZM6.66659 21.6667V18.3334H9.99992V21.6667H6.66659ZM19.9999 36.6667C17.6944 36.6667 15.5277 36.2289 13.4999 35.3534C11.4721 34.4789 9.70825 33.2917 8.20825 31.7917C6.70825 30.2917 5.52103 28.5278 4.64659 26.5C3.77103 24.4723 3.33325 22.3056 3.33325 20C3.33325 17.6945 3.77103 15.5278 4.64659 13.5C5.52103 11.4723 6.70825 9.70837 8.20825 8.20837C9.70825 6.70837 11.4721 5.5206 13.4999 4.64504C15.5277 3.7706 17.6944 3.33337 19.9999 3.33337C22.3055 3.33337 24.4721 3.7706 26.4999 4.64504C28.5277 5.5206 30.2916 6.70837 31.7916 8.20837C33.2916 9.70837 34.4788 11.4723 35.3533 13.5C36.2288 15.5278 36.6666 17.6945 36.6666 20C36.6666 22.3056 36.2288 24.4723 35.3533 26.5C34.4788 28.5278 33.2916 30.2917 31.7916 31.7917C30.2916 33.2917 28.5277 34.4789 26.4999 35.3534C24.4721 36.2289 22.3055 36.6667 19.9999 36.6667ZM19.9999 33.3334C23.7221 33.3334 26.8749 32.0417 29.4583 29.4584C32.0416 26.875 33.3333 23.7223 33.3333 20C33.3333 16.2778 32.0416 13.125 29.4583 10.5417C26.8749 7.95837 23.7221 6.66671 19.9999 6.66671C16.2777 6.66671 13.1249 7.95837 10.5416 10.5417C7.95825 13.125 6.66659 16.2778 6.66659 20C6.66659 23.7223 7.95825 26.875 10.5416 29.4584C13.1249 32.0417 16.2777 33.3334 19.9999 33.3334Z" fill="white"/>
</g>
<defs>
<filter id="filter0_i_208_9" x="0" y="0" width="40" height="41" filterUnits="userSpaceOnUse" color-interpolation-filters="sRGB">
<feFlood flood-opacity="0" result="BackgroundImageFix"/>
<feBlend mode="normal" in="SourceGraphic" in2="BackgroundImageFix" result="shape"/>
<feColorMatrix in="SourceAlpha" type="matrix" values="0 0 0 0 0 0 0 0 0 0 0 0 0 0 0 0 0 0 127 0" result="hardAlpha"/>
<feOffset dy="1"/>
<feGaussianBlur stdDeviation="1.5"/>
<feComposite in2="hardAlpha" operator="arithmetic" k2="-1" k3="1"/>
<feColorMatrix type="matrix" values="0 0 0 0 0 0 0 0 0 0 0 0 0 0 0 0 0 0 0.9 0"/>
<feBlend mode="normal" in2="shape" result="effect1_innerShadow_208_9"/>
</filter>
</defs>
</svg>
