<svg width="40" height="40" viewBox="0 0 40 40" fill="none" xmlns="http://www.w3.org/2000/svg">
<g filter="url(#filter0_i_109_92)">
<path d="M34.9999 3.33337H9.99992C9.11586 3.33337 8.26802 3.68456 7.6429 4.30968C7.01777 4.93481 6.66659 5.78265 6.66659 6.66671V11.6667H3.33325V15H6.66659V18.3334H3.33325V21.6667H6.66659V25H3.33325V28.3334H6.66659V33.3334C6.66659 34.2174 7.01777 35.0653 7.6429 35.6904C8.26802 36.3155 9.11586 36.6667 9.99992 36.6667H34.9999C35.4419 36.6667 35.8659 36.4911 36.1784 36.1786C36.491 35.866 36.6666 35.4421 36.6666 35V5.00004C36.6666 4.55801 36.491 4.13409 36.1784 3.82153C35.8659 3.50897 35.4419 3.33337 34.9999 3.33337V3.33337ZM21.6666 8.33171C24.4133 8.33171 26.6666 10.5834 26.6666 13.3317C26.6618 14.6565 26.1335 15.9256 25.1969 16.8625C24.2603 17.7994 22.9913 18.3281 21.6666 18.3334C18.9216 18.3334 16.6666 16.0784 16.6666 13.3317C16.6666 10.5834 18.9216 8.33171 21.6666 8.33171ZM31.6666 30H11.6666V28.75C11.6666 25.0517 16.1749 21.25 21.6666 21.25C27.1583 21.25 31.6666 25.0517 31.6666 28.75V30Z" fill="white"/>
</g>
<defs>
<filter id="filter0_i_109_92" x="3.33325" y="3.33337" width="33.3333" height="35.3334" filterUnits="userSpaceOnUse" color-interpolation-filters="sRGB">
<feFlood flood-opacity="0" result="BackgroundImageFix"/>
<feBlend mode="normal" in="SourceGraphic" in2="BackgroundImageFix" result="shape"/>
<feColorMatrix in="SourceAlpha" type="matrix" values="0 0 0 0 0 0 0 0 0 0 0 0 0 0 0 0 0 0 127 0" result="hardAlpha"/>
<feOffset dy="2"/>
<feGaussianBlur stdDeviation="1"/>
<feComposite in2="hardAlpha" operator="arithmetic" k2="-1" k3="1"/>
<feColorMatrix type="matrix" values="0 0 0 0 0 0 0 0 0 0 0 0 0 0 0 0 0 0 0.9 0"/>
<feBlend mode="normal" in2="shape" result="effect1_innerShadow_109_92"/>
</filter>
</defs>
</svg>
