<svg width="355" height="466" viewBox="0 0 355 466" fill="none" xmlns="http://www.w3.org/2000/svg">
<g filter="url(#filter0_i_208_14)">
<path d="M147 0.930054L67.2001 195.3L92.5001 199.9L117.7 176L122.3 210.5L152.8 227.1L121.5 242.1L115.2 276.2L91.2001 251.1L56.8001 255.6L73.3001 225L63.5001 204.4L1.17007 356.1C-1.29993 368.7 1.45007 378.1 8.61007 387C15.9001 396 28.3001 404 44.5001 410.2C51.7001 413 59.5001 415.4 67.9001 417.4L71.0001 407.5L46.6001 374.9L87.3001 374.3L110.8 341.1L124 379.6L162.9 391.7L130.2 416.1L130.3 426.2C143.5 427 157 427.2 170.5 426.8C217.1 425.5 263.6 417.6 295.1 405.2C310.9 399 322.8 391.6 329 384.5C335.2 377.4 336.6 372 333.5 364L215.3 133.8L210.8 133.6L189 160.6L179.9 127.1L147.4 114.7L176.5 95.7001L178.2 61.6101L147 0.930054ZM221.7 248.9L247.2 280.7L287.9 278.9L265.5 312.9L279.8 351L240.5 340.3L208.7 365.7L206.8 325L172.8 302.6L210.9 288.2L221.7 248.9V248.9ZM350.7 382.5C348.9 387.5 346.2 392.2 342.6 396.3C340.7 398.5 338.5 400.6 336.1 402.6C336.4 407.1 336 411.1 335 414.6C332.3 424.8 325.3 432.1 313.2 437.7C289 448.9 245.6 450.2 199.2 443.6C198.7 443.5 198.2 443.4 197.7 443.4C188.9 444.1 179.9 444.5 171 444.8C151.5 445.3 131.9 444.8 113.1 443C140.1 451 168.8 457.4 196.7 461.4C244.8 468.2 290.1 468.3 320.8 454C336.2 446.9 348.1 435.3 352.4 419.3C355.3 408.4 354.7 396.2 350.7 382.5Z" fill="white"/>
</g>
<defs>
<filter id="filter0_i_208_14" x="-2.71753" y="0.930054" width="356.927" height="467.925" filterUnits="userSpaceOnUse" color-interpolation-filters="sRGB">
<feFlood flood-opacity="0" result="BackgroundImageFix"/>
<feBlend mode="normal" in="SourceGraphic" in2="BackgroundImageFix" result="shape"/>
<feColorMatrix in="SourceAlpha" type="matrix" values="0 0 0 0 0 0 0 0 0 0 0 0 0 0 0 0 0 0 127 0" result="hardAlpha"/>
<feOffset dx="-3" dy="3"/>
<feGaussianBlur stdDeviation="2"/>
<feComposite in2="hardAlpha" operator="arithmetic" k2="-1" k3="1"/>
<feColorMatrix type="matrix" values="0 0 0 0 0 0 0 0 0 0 0 0 0 0 0 0 0 0 0.9 0"/>
<feBlend mode="normal" in2="shape" result="effect1_innerShadow_208_14"/>
</filter>
</defs>
</svg>
