<svg width="80" height="80" viewBox="0 0 80 80" fill="none" xmlns="http://www.w3.org/2000/svg">
<g filter="url(#filter0_i_247_5)">
<path d="M55 69.9998C30.1875 69.9998 10 49.8123 10 24.9998C10.0094 20.7437 11.564 16.6359 14.3748 13.44C17.1855 10.2441 21.0612 8.17761 25.2813 7.62478C26.357 7.5055 27.4428 7.732 28.3812 8.27142C29.3195 8.81084 30.0617 9.63514 30.5 10.6248L36.7812 25.281C37.1071 26.0418 37.2377 26.8719 37.1613 27.6959C37.0849 28.52 36.8039 29.3119 36.3438 29.9998L31.1562 37.9373C33.5053 42.7044 37.3758 46.553 42.1562 48.8748L50 43.656C50.6872 43.1928 51.4811 42.9124 52.3067 42.8414C53.1324 42.7703 53.9625 42.9108 54.7188 43.2498L69.375 49.4998C70.3646 49.9381 71.1889 50.6802 71.7284 51.6186C72.2678 52.557 72.4943 53.6428 72.375 54.7185C71.8222 58.9386 69.7557 62.8142 66.5598 65.625C63.3639 68.4358 59.2561 69.9904 55 69.9998ZM25.9063 12.5935C22.8905 12.9812 20.1194 14.4548 18.1119 16.7385C16.1043 19.0221 14.998 21.9592 15 24.9998C15.0083 35.6059 19.2252 45.7752 26.7249 53.2749C34.2245 60.7746 44.3939 64.9915 55 64.9998C58.0406 65.0018 60.9777 63.8955 63.2613 61.8879C65.545 59.8804 67.0186 57.1093 67.4062 54.0935L52.75 47.8435L44.9375 53.0623C44.2187 53.5375 43.3892 53.8189 42.5296 53.8791C41.6699 53.9393 40.8093 53.7764 40.0313 53.406C34.2092 50.5897 29.4998 45.9023 26.6563 40.0935C26.2813 39.3181 26.1131 38.4589 26.1679 37.5993C26.2226 36.7398 26.4985 35.9089 26.9688 35.1873L32.1875 27.2498L25.9063 12.5935Z" fill="white"/>
</g>
<defs>
<filter id="filter0_i_247_5" x="0" y="0" width="80" height="83" filterUnits="userSpaceOnUse" color-interpolation-filters="sRGB">
<feFlood flood-opacity="0" result="BackgroundImageFix"/>
<feBlend mode="normal" in="SourceGraphic" in2="BackgroundImageFix" result="shape"/>
<feColorMatrix in="SourceAlpha" type="matrix" values="0 0 0 0 0 0 0 0 0 0 0 0 0 0 0 0 0 0 127 0" result="hardAlpha"/>
<feOffset dy="3"/>
<feGaussianBlur stdDeviation="2"/>
<feComposite in2="hardAlpha" operator="arithmetic" k2="-1" k3="1"/>
<feColorMatrix type="matrix" values="0 0 0 0 0 0 0 0 0 0 0 0 0 0 0 0 0 0 0.9 0"/>
<feBlend mode="normal" in2="shape" result="effect1_innerShadow_247_5"/>
</filter>
</defs>
</svg>
