<svg width="50" height="50" viewBox="0 0 50 50" fill="none" xmlns="http://www.w3.org/2000/svg">
<path d="M1.93638 1.78271L1.93618 1.78418C26.3153 5.39697 38.2549 18.3841 40.737 28.9336C40.5325 29.5173 40.2979 30.0121 40.0467 30.3953C38.3583 32.9718 33.9411 34.3089 30.1196 33.1879C30.704 31.2592 31.109 29.2979 31.2983 27.4145C21.976 28.213 10.542 28.2367 1.88354 25.2033C5.95845 34.5116 11.5833 41.2644 17.9952 47.6721C19.7819 47.4607 21.4919 46.5637 23.0574 45.1945C31.3794 48.58 41.4232 44.945 45.2007 39.2687C49.783 32.384 52.4341 8.26094 28.847 1.78281H22.7354C38.3922 7.1416 41.8497 18.1637 41.4437 25.1256C37.8158 15.9823 27.9984 6.38975 10.9378 1.78281H1.93657L1.93638 1.78271Z" fill="#3A3A3A"/>
</svg>
