<svg width="80" height="80" viewBox="0 0 80 80" fill="none" xmlns="http://www.w3.org/2000/svg">
<g clip-path="url(#clip0_249_26)">
<g filter="url(#filter0_d_249_26)">
<path d="M54.5333 46.6665C54.8 44.4665 55 42.2665 55 39.9998C55 37.7332 54.8 35.5332 54.5333 33.3332H65.8C66.3333 35.4665 66.6667 37.6998 66.6667 39.9998C66.6667 42.2998 66.3333 44.5332 65.8 46.6665M48.6333 65.1998C50.6333 61.4998 52.1667 57.4998 53.2333 53.3332H63.0667C59.8372 58.8941 54.7137 63.1065 48.6333 65.1998ZM47.8 46.6665H32.2C31.8667 44.4665 31.6667 42.2665 31.6667 39.9998C31.6667 37.7332 31.8667 35.4998 32.2 33.3332H47.8C48.1 35.4998 48.3333 37.7332 48.3333 39.9998C48.3333 42.2665 48.1 44.4665 47.8 46.6665ZM40 66.5332C37.2333 62.5332 35 58.0998 33.6333 53.3332H46.3667C45 58.0998 42.7667 62.5332 40 66.5332ZM26.6667 26.6665H16.9333C20.1295 21.0906 25.2493 16.8715 31.3333 14.7998C29.3333 18.4998 27.8333 22.4998 26.6667 26.6665ZM16.9333 53.3332H26.6667C27.8333 57.4998 29.3333 61.4998 31.3333 65.1998C25.2621 63.1054 20.1495 58.8922 16.9333 53.3332ZM14.2 46.6665C13.6667 44.5332 13.3333 42.2998 13.3333 39.9998C13.3333 37.6998 13.6667 35.4665 14.2 33.3332H25.4667C25.2 35.5332 25 37.7332 25 39.9998C25 42.2665 25.2 44.4665 25.4667 46.6665M40 13.4332C42.7667 17.4332 45 21.8998 46.3667 26.6665H33.6333C35 21.8998 37.2333 17.4332 40 13.4332ZM63.0667 26.6665H53.2333C52.1901 22.538 50.6452 18.5528 48.6333 14.7998C54.7667 16.8998 59.8667 21.1332 63.0667 26.6665ZM40 6.6665C21.5667 6.6665 6.66669 21.6665 6.66669 39.9998C6.66669 48.8404 10.1786 57.3188 16.4298 63.5701C19.525 66.6653 23.1997 69.1207 27.2439 70.7958C31.2881 72.471 35.6226 73.3332 40 73.3332C48.8405 73.3332 57.319 69.8213 63.5702 63.5701C69.8214 57.3188 73.3333 48.8404 73.3333 39.9998C73.3333 35.6224 72.4711 31.2879 70.796 27.2437C69.1208 23.1995 66.6655 19.5249 63.5702 16.4296C60.4749 13.3343 56.8003 10.879 52.7561 9.20385C48.7119 7.5287 44.3774 6.6665 40 6.6665Z" fill="#7C4343"/>
</g>
</g>
<defs>
<filter id="filter0_d_249_26" x="2.66669" y="6.6665" width="74.6666" height="74.6665" filterUnits="userSpaceOnUse" color-interpolation-filters="sRGB">
<feFlood flood-opacity="0" result="BackgroundImageFix"/>
<feColorMatrix in="SourceAlpha" type="matrix" values="0 0 0 0 0 0 0 0 0 0 0 0 0 0 0 0 0 0 127 0" result="hardAlpha"/>
<feOffset dy="4"/>
<feGaussianBlur stdDeviation="2"/>
<feComposite in2="hardAlpha" operator="out"/>
<feColorMatrix type="matrix" values="0 0 0 0 0 0 0 0 0 0 0 0 0 0 0 0 0 0 0.9 0"/>
<feBlend mode="normal" in2="BackgroundImageFix" result="effect1_dropShadow_249_26"/>
<feBlend mode="normal" in="SourceGraphic" in2="effect1_dropShadow_249_26" result="shape"/>
</filter>
<clipPath id="clip0_249_26">
<rect width="80" height="80" fill="white"/>
</clipPath>
</defs>
</svg>
